#!OML:ASF E:/inclinewalkrobotboard/Project1/Captureday1/Session1/subject1.ASF
:FULLY-SPECIFIED
:DEGREES
238
root 0 0 0 -2.5407396367804616 -4.228405314478227 -6.564306558596117
lowerback 11.075309049374972 1.244968145390669 5.6317446054144025
upperback 0.0632433795258992 2.50530115743853 2.3150840095494463
thorax -6.027620972636846 1.122579975384961 -1.1220841749851833
lowerneck -17.391913837904177 -3.4271328349583694 -1.4417672508187835
upperneck 23.82964938690787 -4.469110536102752 0.0027690984105230854
head 10.630658863630428 -2.142563954324176 -0.36123812351099643
rclavicle 4.304306967454892E-16 1.2339647056229995E-15
rhumerus -30.704569661949343 -20.941628157290054 -77.33996771937083
rradius 26.956029914008994
rwrist 2.2332062477282166
rhand -18.802317093474336 23.2452789011652
rfingers 7.1250200000000214
rthumb 7.494731763685429 -6.637279703371103
lclavicle -2.696912249369845E-15 1.6341828375369727E-15
lhumerus -34.38429228479322 -1.3366157770807132 84.71556178049573
lradius 28.60418985752643
lwrist 6.734336050345535
lhand -27.286570525261315 23.67669497935753
lfingers 7.1250200000000214
lthumb -0.6891671445061585 53.65554237864093
rfemur -1.8351560396797222 8.332329403131522 36.185008902637925
rtibia 32.12785809369518
rfoot -21.42310761910824 -7.36268523642813
rtoes 8.853996513735062
lfemur -24.563247891502346 5.2023178542311825 -14.403762190631564
ltibia 64.92157904549569
lfoot -1.0254731622531743 -7.32993997923321
ltoes -0.2603158262484193
239
root 0 0 0 -1.938063010292634 -4.8041885404628 -7.005134874907254
lowerback 11.632713321055785 1.657483201920161 6.2542394816983355
upperback 0.4389758417092282 3.115562732492122 2.2815710961197815
thorax -5.868580151296326 1.4080193610185208 -1.5990761660560455
lowerneck -17.32266878972515 -3.575660427021259 -1.447117583438283
upperneck 21.56417356912976 -4.596994769907248 0.08977295241687977
head 9.829888680763784 -2.2295137159398166 -0.3283901741062499
rclavicle 9.69882137909509E-16 1.4295877253166778E-15
rhumerus -29.601672253500297 -19.29678815769323 -77.82762362697645
rradius 28.053371456479898
rwrist 1.3384591112076203
rhand -19.00541156598429 23.819362884733795
rfingers 7.125020000000019
rthumb 7.300166292988049 -6.067144941762347
lclavicle -2.178536995610558E-15 1.8584759904599498E-15
lhumerus -34.87620466625117 -1.075940055376199 84.91372502086512
lradius 28.33849788759454
lwrist 6.746987749985086
lhand -27.26449132400779 23.811300380380775
lfingers 7.125020000000017
lthumb -0.6680393159739948 53.79696433441096
rfemur -0.5295589874529085 8.432887759153408 36.70305676626504
rtibia 32.203099425872594
rfoot -21.95083652126306 -7.542330713055453
rtoes 8.565122367738086
lfemur -29.36157658406115 3.2298513726827327 -12.086701448147224
ltibia 49.12686979711406
lfoot -5.515361705834621 -1.119132462521946
ltoes -3.694938565702728
240
root 0 0 0 -1.7255076947976526 -5.0740039261546 -7.128169621890252
lowerback 11.629373013308598 1.789580508557835 6.519131372315801
upperback 0.6792989796436739 3.301476111262634 2.253014940466459
thorax -5.581833344806414 1.495324364225723 -1.7992553383774266
lowerneck -17.4450715488621 -3.5598444082161333 -1.5280691186058148
upperneck 20.286775041181194 -4.527042949516851 0.18801677958087915
head 9.369267018881622 -2.213353070930776 -0.2688414754748714
rclavicle 1.7110483752312407E-15 8.260123994609729E-16
rhumerus -28.417681594023186 -17.879171151695715 -78.01023492915144
rradius 29.199500897113413
rwrist 0.48696183734502174
rhand -19.20113201853512 24.368600798619745
rfingers 7.125020000000017
rthumb 7.112626587388525 -5.530380501977348
lclavicle -1.75580948417717E-15 1.4316311695952328E-15
lhumerus -35.110353496240535 -0.9116961252908037 84.96448080106083
lradius 28.186274261895733
lwrist 6.682296835671407
lhand -27.294873295302367 23.72232574452712
lfingers 7.125020000000015
lthumb -0.6969098599133181 53.712189597612806
rfemur 0.5107143281110584 8.420957325107317 36.58771653310776
rtibia 31.586005887510005
rfoot -22.16255727923686 -7.667681987300366
rtoes 7.553762132931612
lfemur -29.946007029139544 -0.31063865680353864 -10.448986264966663
ltibia 30.413895048591048
lfoot -6.410316770689036 3.5736815679941873
ltoes -6.2990986721262985
241
root 0 0 0 -1.60669037741146 -5.241531932956017 -7.175597929985336
lowerback 11.484293713847132 1.8479189284667266 6.646534546560138
upperback 0.8112148850793687 3.378159565448117 2.2349945330556924
thorax -5.346164501639378 1.5320090553697936 -1.8947773593378812
lowerneck -17.55094340775877 -3.519238065721264 -1.5951961674605195
upperneck 19.703536701800125 -4.446221245520437 0.2584074557879492
head 9.15269320145246 -2.183427491735264 -0.22420725699042848
rclavicle 2.06705105011637E-15 3.240260047882848E-16
rhumerus -27.9017281649191 -17.37531190195687 -77.94076957556695
rradius 29.768534438351086
rwrist 0.07825209999246496
rhand -19.303348981895276 24.617194412108404
rfingers 7.125020000000017
rthumb 7.0143027296525435 -5.294143303296451
lclavicle -1.665222340430265E-15 9.297443067785124E-16
lhumerus -35.2349215290861 -0.6986392553676967 84.88075569309459
lradius 27.960247660581693
lwrist 6.540873334060625
lhand -27.285152014786032 23.73984552720017
lfingers 7.125020000000016
lthumb -0.6878953731672031 53.730442887876606
rfemur 5.101549464955942 8.313791062430258 35.663840382655906
rtibia 28.530363228445264
rfoot -21.846830094959 -6.935350242469472
rtoes 3.724186546000819
lfemur -27.016043934200557 -3.5321424686665397 -11.119079550633765
ltibia 20.91175587678682
lfoot -5.111544344528513 4.396863999038258
ltoes -3.3457343943813207
242
root 0 0 0 -1.7280497492069598 -5.28756823633078 -7.0449011940173385
lowerback 11.509470256476796 1.8771633093067708 6.5031857093675525
upperback 0.8040209913517865 3.3978814667554387 2.188651644785014
thorax -5.370347967648237 1.5443263047273657 -1.866209689111649
lowerneck -17.483607470059695 -3.5438398163369325 -1.6025397255914338
upperneck 19.462026476371946 -4.49503012997231 0.3499721616807574
head 9.064988607293172 -2.198604626182106 -0.19605322839838996
rclavicle 2.2488116678973674E-15 -1.2975308589855979E-15
rhumerus -27.901426823524506 -17.67667537858457 -77.76887759197356
rradius 29.72364239082926
rwrist 0.1463676755267489
rhand -19.319566127689257 24.58703432044026
rfingers 7.125020000000017
rthumb 6.999619437341523 -5.327680963954407
lclavicle -1.5400091557496424E-15 -8.316634649707997E-16
lhumerus -35.457075931605 -0.33192392243917246 84.71362369836612
lradius 27.50695245725577
lwrist 6.231147064347499
lhand -27.265193658028085 23.862646136804617
lfingers 7.125020000000017
lthumb -0.6682257841712547 53.856592193666245
rfemur 11.492996813430267 8.349931451072774 35.415579617453815
rtibia 26.25772550957668
rfoot -20.898687702613582 -5.344312813738093
rtoes -2.5843589123851833
lfemur -26.310914660513195 -4.513391432837688 -11.345558836677018
ltibia 20.166994244665396
lfoot -5.527743586774646 4.5996257853354
ltoes -1.5586264527190714
243
root 0 0 0 -1.989871301126405 -5.232399499489042 -6.713474190315749
lowerback 11.618045999242765 1.8985187144662667 6.1187052991300925
upperback 0.6925633888572518 3.3845992974355115 2.08522610108808
thorax -5.562122553433922 1.5438612199502293 -1.7609654111454192
lowerneck -17.225923572359896 -3.6191311033470037 -1.5491762307687509
upperneck 19.465060787782996 -4.6480232683903004 0.47547332878906334
head 9.059033353747168 -2.249291182575278 -0.17611847519862456
rclavicle 1.3446130039043852E-15 -2.3546470200779508E-15
rhumerus -28.29267543017494 -18.57497273296555 -77.41801114816977
rradius 29.288931463856475
rwrist 0.5352467795273803
rhand -19.298309024145127 24.364009412005515
rfingers 7.125020000000017
rthumb 7.020961989092311 -5.559945823869114
lclavicle -2.5564993610517734E-15 -2.166627885742206E-15
lhumerus -35.75717130245871 0.31890756621350075 84.41344119473368
lradius 26.80082596187053
lwrist 5.788624178473233
lhand -27.19168568291833 24.075605563530026
lfingers 7.125020000000018
lthumb -0.5974326197147342 54.07697251124812
rfemur 12.237453883128609 7.996530504186815 35.393560256905424
rtibia 29.184611986554067
rfoot -19.014613601717947 -4.111565138447138
rtoes -4.980423123521895
lfemur -25.835774310729292 -4.355516946820476 -11.916281021177035
ltibia 20.805242012960072
lfoot -5.440811187054759 4.028778692534855
ltoes -1.455349220166454
244
root 0 0 0 -2.1315469515531618 -5.187605829998689 -6.1831541830584555
lowerback 11.509550671146338 1.9512214942982458 5.574715805759133
upperback 0.570812168883482 3.3816313373891145 1.8916532197348088
thorax -5.641699660462541 1.5520941364118883 -1.6574984320455055
lowerneck -16.87231392747717 -3.64893352218995 -1.4603970656626877
upperneck 19.53946875369153 -4.749562711731354 0.6264640823622795
head 9.054703490928366 -2.2717652742797823 -0.14584143423293444
rclavicle 8.052421199302154E-16 -2.2848486005009877E-15
rhumerus -28.86905414556651 -19.727274133167484 -76.96697836258375
rradius 28.737098220567848
rwrist 0.9630716254972524
rhand -19.26784249325961 24.042737123837803
rfingers 7.125020000000017
rthumb 7.050514331084487 -5.889171076849095
lclavicle -3.0381381467241857E-15 -2.345178472986173E-15
lhumerus -36.0103916963304 1.1672540244824854 84.0071238815269
lradius 25.992120965376305
lwrist 5.309160078490595
lhand -27.045515638921056 24.365739904895523
lfingers 7.125020000000019
lthumb -0.45652421350747385 54.37282608169975
rfemur 9.620634265202792 6.049846342879733 32.06387654151901
rtibia 36.16173162824677
rfoot -13.054618957248495 -2.074769390122026
rtoes -4.812846387264563
lfemur -24.637179878359607 -3.764131668256352 -13.82321579320227
ltibia 22.571052952398738
lfoot -5.0540585019697915 2.482609543714873
ltoes 0.26105821482876124
